<?xml version="1.0" encoding="utf-8"?>
<!-- Generator: Adobe Adobe Illustrator 24.2.0, SVG Export Plug-In . SVG Version: 6.00 Build 0)  -->
<svg version="1.1" id="Vektorebene_1_" xmlns="http://www.w3.org/2000/svg" xmlns:xlink="http://www.w3.org/1999/xlink" x="0px"
	 y="0px" viewBox="0 0 116 116" style="enable-background:new 0 0 116 116;" xml:space="preserve">
<style type="text/css">
	.st0{fill:#FFFFFF;}
</style>
<path d="M102.8,80.52c0.01,0,0.02,0,0.03,0c-3.07,0.01-6.15,0.01-9.22,0.01c-4.59,0-9.18,0-13.78,0c-4.66,0-9.32,0-13.98,0
	c-4.52,0-9.04,0-13.56,0c-3.11,0-6.22,0-9.33,0h0c-0.04,0-0.07,0-0.1,0c-0.03-0.01-0.06-0.01-0.09-0.02
	c-0.06-0.02-0.12-0.04-0.18-0.07c0.02,0.01,0.03,0.02,0.05,0.03c0.04,0.02,0.08,0.04,0.13,0.04c0.01,0,0.02,0.01,0.02,0.01
	c0.02,0,0.05,0.01,0.07,0.01c0.03,0,0.06,0.01,0.1,0.01h0c3.11,0,6.22,0,9.33,0c4.52,0,9.04,0,13.56,0c4.66,0,9.32,0,13.98,0
	c4.6,0,9.19,0,13.78,0C96.68,80.53,99.74,80.53,102.8,80.52z M107.12,80.34c0.27,0.38,0.2,0.92-0.19,1.2
	c-0.15,0.11-0.32,0.16-0.5,0.16c-0.02,0-0.05,0-0.06,0c-0.06,0.02-0.13,0.04-0.2,0.05c-4.03,0.62-8.06,1.22-12.09,1.83
	c-4.65,0.71-9.3,1.41-13.95,2.11c-4.59,0.7-9.19,1.39-13.79,2.09c-4.53,0.68-9.06,1.37-13.59,2.05c-4.1,0.62-8.2,1.24-12.3,1.86
	c-0.97,0.14-1.94,0.29-2.91,0.44c-0.01,0-0.01,0-0.02,0c-0.05,0.01-0.1,0.01-0.14,0.02c-0.04,0-0.08,0.01-0.11,0.01
	c-0.18,0-0.34-0.06-0.48-0.17c-0.03,0-0.05,0-0.08,0c-0.12,0-0.23-0.02-0.34-0.07c-0.82-0.34-1.66-0.66-2.49-0.99
	c-1.68-0.67-3.35-1.33-5.02-1.99c-4.2-1.67-8.4-3.33-12.6-5c-2.26-0.89-4.52-1.79-6.78-2.69c-0.26-0.11-0.43-0.34-0.49-0.61
	c-0.29-0.27-0.34-0.71-0.14-1.07c0.02-0.03,0.04-0.06,0.05-0.09c0-0.01,0-0.02,0.01-0.02c0.02-0.02,0.02-0.04,0.04-0.06
	c0,0,0.01-0.01,0.01-0.02c1.67-3.01,3.34-6.04,5.01-9.05c2.26-4.08,4.53-8.17,6.79-12.25c2.29-4.13,4.57-8.26,6.87-12.4
	c2.37-4.28,4.74-8.56,7.11-12.84c2.37-4.28,4.74-8.56,7.11-12.84c2.36-4.27,4.73-8.54,7.09-12.8c0.72-1.31,1.45-2.61,2.17-3.92
	c0-0.02,0.02-0.03,0.02-0.05c0.04-0.09,0.09-0.16,0.14-0.25c0.23-0.41,0.79-0.52,1.18-0.29c0.07,0.04,0.12,0.08,0.17,0.14
	c0.01,0,0.01,0,0.01,0c0.05,0.04,0.09,0.09,0.13,0.15c2.63,3.75,5.27,7.5,7.9,11.24c2.73,3.89,5.46,7.77,8.18,11.65
	c2.73,3.88,5.46,7.76,8.18,11.64s5.45,7.76,8.18,11.64c2.68,3.81,5.36,7.62,8.04,11.43c2.54,3.61,5.07,7.22,7.61,10.83
	c2.05,2.92,4.1,5.83,6.15,8.75c0.04,0.05,0.07,0.09,0.1,0.14c0,0.01,0.01,0.01,0.01,0.02v0C107.12,80.34,107.12,80.34,107.12,80.34z
	"/>
<path d="M101.89,97.93c0,0.02,0,0.03,0,0.04c-0.02,0.48-0.43,0.82-0.89,0.82c-0.02,0-0.03,0-0.05,0c-3.63,0-7.25-0.03-10.88-0.04
	c-4.72-0.01-9.45-0.03-14.18-0.05c-4.83-0.01-9.66-0.03-14.48-0.05c-4.79-0.02-9.56-0.03-14.34-0.05c-4.67-0.01-9.34-0.03-14-0.05
	c-4.66-0.02-9.31-0.03-13.97-0.05c-1.07,0-2.13-0.01-3.2-0.01c-0.47,0-0.84-0.45-0.82-0.89c0.02-0.48,0.43-0.82,0.89-0.82
	c4.17,0,8.33,0.03,12.5,0.04c4.68,0.02,9.36,0.03,14.04,0.05c4.74,0.01,9.48,0.03,14.22,0.05c4.8,0.02,9.61,0.04,14.41,0.05
	c4.79,0.02,9.56,0.03,14.34,0.05c4.45,0.01,8.9,0.03,13.35,0.04c0.75,0,1.5,0.01,2.25,0.01C101.52,97.07,101.89,97.49,101.89,97.93z
	"/>
<path d="M84.16,102.01c0.47,0,0.84,0.44,0.82,0.89c-0.02,0.48-0.42,0.82-0.89,0.82c-3.11-0.02-6.21-0.04-9.32-0.05
	c-4.11-0.03-8.21-0.05-12.32-0.07c-4.8-0.03-9.62-0.05-14.42-0.09c-4.68-0.03-9.36-0.05-14.03-0.08c-4.03-0.02-8.05-0.04-12.08-0.07
	c-0.47,0-0.84-0.44-0.82-0.89c0.02-0.48,0.43-0.82,0.89-0.82c4.13,0.02,8.27,0.05,12.39,0.07c4.68,0.03,9.36,0.05,14.04,0.08
	c4.8,0.03,9.6,0.05,14.4,0.09c4.08,0.02,8.15,0.05,12.23,0.07C78.08,101.98,81.12,101.99,84.16,102.01z"/>
<path d="M60.87,107.73c0.02,0.44-0.36,0.89-0.81,0.89c0,0-0.01,0-0.02,0c-1.32-0.02-2.64-0.04-3.95-0.05
	c-2.33-0.03-4.66-0.06-7-0.09c-4.46-0.06-8.93-0.12-13.39-0.17c-1.43-0.02-2.87-0.04-4.3-0.06c-0.46,0-0.87-0.34-0.89-0.82
	c-0.01-0.45,0.36-0.9,0.83-0.89c4,0.05,8.01,0.11,12.02,0.16c4.61,0.06,9.21,0.12,13.82,0.18c0.93,0.02,1.87,0.02,2.8,0.04
	C60.45,106.91,60.86,107.24,60.87,107.73z"/>
<path d="M44.91,112.52c0.01,0.46-0.38,0.87-0.84,0.87c-1.73,0-3.45,0.02-5.18,0.02c-0.01,0-0.01,0-0.01,0
	c-0.46,0-0.86-0.38-0.86-0.84c-0.01-0.46,0.38-0.87,0.85-0.87c1.73-0.01,3.45-0.03,5.18-0.03C44.5,111.67,44.9,112.04,44.91,112.52z
	"/>
<path class="st0" d="M100.49,73.9c1.15,1.64,2.3,3.27,3.45,4.91c-2.29,0-4.58,0-6.87,0c-4.61,0-9.23,0-13.84,0
	c-4.59,0-9.18,0-13.78,0c-4.58,0-9.16,0-13.73,0c-4.23,0-8.46,0-12.7,0c-0.47,0-0.88,0.34-0.89,0.82c0,0.01,0,0.03,0,0.04
	c0,0.43,0.37,0.85,0.82,0.85h0c3.11,0,6.22,0,9.33,0c4.52,0,9.04,0,13.56,0c4.66,0,9.32,0,13.98,0c4.6,0,9.19,0,13.78,0
	c3.07,0,6.15,0,9.22-0.01c-0.85,0.13-1.69,0.26-2.54,0.39c-4.48,0.68-8.97,1.36-13.46,2.04c-4.66,0.71-9.32,1.41-13.99,2.12
	c-4.62,0.7-9.25,1.4-13.88,2.1c-4.43,0.67-8.86,1.34-13.28,2.01c-2.79,0.42-5.57,0.84-8.35,1.26c-0.01,0-0.02,0-0.02,0
	c0.48-2.74,0.96-5.48,1.44-8.22c0.78-4.4,1.55-8.8,2.32-13.2c0.81-4.61,1.62-9.22,2.43-13.83c0.79-4.49,1.58-8.98,2.37-13.47
	c0.79-4.5,1.58-9,2.38-13.5c0.74-4.23,1.48-8.46,2.23-12.69c0.6-3.4,1.2-6.8,1.8-10.2c0-0.02,0-0.02,0-0.04
	c2.69,3.83,5.38,7.66,8.07,11.48c2.71,3.86,5.42,7.71,8.14,11.58c2.75,3.91,5.5,7.83,8.25,11.75c2.71,3.87,5.43,7.74,8.16,11.61
	c2.65,3.77,5.29,7.53,7.94,11.29C95.39,66.63,97.94,70.27,100.49,73.9z"/>
<path class="st0" d="M37.36,80.25c-0.56,3.18-1.12,6.37-1.68,9.55c-0.86-0.34-1.73-0.68-2.59-1.02c-3.86-1.53-7.73-3.07-11.59-4.6
	c-3.32-1.32-6.66-2.63-9.97-3.95c1.33,0,2.66,0,4,0c4.14,0,8.28,0.01,12.42,0.01C31.09,80.25,34.22,80.25,37.36,80.25z"/>
</svg>
